<svg xmlns="http://www.w3.org/2000/svg" xmlns:xlink="http://www.w3.org/1999/xlink" xml:space="preserve" version="1.1" style="shape-rendering:geometricPrecision;text-rendering:geometricPrecision;image-rendering:optimizeQuality;" viewBox="0 0 333 416.25" x="0px" y="0px" fill-rule="evenodd" clip-rule="evenodd"><defs><style type="text/css">
   
    .fil0 {fill:black}
    .fil1 {fill:black;fill-rule:nonzero}
   
  </style></defs><g><rect class="fil0" x="119" y="119" width="95.2854" height="95.2854"/><path class="fil1" d="M167 29c76,0 137,62 137,138 0,76 -61,137 -137,137 -76,0 -138,-61 -138,-137 0,-76 62,-138 138,-138zm0 14c-68,0 -124,56 -124,124 0,68 56,123 124,123 68,0 123,-55 123,-123 0,-68 -55,-124 -123,-124z"/></g><text x="0" y="348" fill="#000000" font-size="5px" font-weight="bold" font-family="'Helvetica Neue', Helvetica, Arial-Unicode, Arial, Sans-serif">Created by Elisa Willy</text><text x="0" y="353" fill="#000000" font-size="5px" font-weight="bold" font-family="'Helvetica Neue', Helvetica, Arial-Unicode, Arial, Sans-serif">from the Noun Project</text></svg>