<svg xmlns:dc="http://purl.org/dc/elements/1.1/" xmlns:cc="http://creativecommons.org/ns#" xmlns:rdf="http://www.w3.org/1999/02/22-rdf-syntax-ns#" xmlns:svg="http://www.w3.org/2000/svg" xmlns="http://www.w3.org/2000/svg" xmlns:sodipodi="http://sodipodi.sourceforge.net/DTD/sodipodi-0.dtd" xmlns:inkscape="http://www.inkscape.org/namespaces/inkscape" version="1.1" x="0px" y="0px" viewBox="0 0 100 125"><g transform="translate(0,-952.36218)"><path style="font-size:medium;font-style:normal;font-variant:normal;font-weight:normal;font-stretch:normal;text-indent:0;text-align:start;text-decoration:none;line-height:normal;letter-spacing:normal;word-spacing:normal;text-transform:none;direction:ltr;block-progression:tb;writing-mode:lr-tb;text-anchor:start;baseline-shift:baseline;opacity:1;color:#000000;fill:#000000;fill-opacity:1;stroke:none;stroke-width:4;marker:none;visibility:visible;display:inline;overflow:visible;enable-background:accumulate;font-family:Sans;-inkscape-font-specification:Sans" d="m 42.1875,7.4375 -2.625,9.21875 c -2.014652,0.63333 -3.947796,1.44013 -5.78125,2.40625 l -8.375,-4.65625 C 24.653227,13.995254 23.63684,14.142363 23.03125,14.75 L 14.75,23.03125 c -0.607637,0.60559 -0.754746,1.621977 -0.34375,2.375 l 4.65625,8.375 c -0.966116,1.83345 -1.772918,3.7666 -2.40625,5.78125 L 7.4375,42.1875 C 6.6091355,42.430307 5.9922071,43.261819 6,44.125 l 0,11.75 c -0.00779,0.863181 0.6091355,1.694693 1.4375,1.9375 l 9.21875,2.625 c 0.633332,2.0146 1.440134,3.94785 2.40625,5.78125 l -4.65625,8.375 c -0.410996,0.753023 -0.263887,1.76941 0.34375,2.375 L 23.03125,85.25 c 0.60559,0.607637 1.621977,0.754746 2.375,0.34375 l 8.375,-4.65625 c 1.833454,0.9661 3.766598,1.77295 5.78125,2.40625 l 2.625,9.21875 c 0.242807,0.828365 1.074319,1.445293 1.9375,1.4375 l 11.75,0 c 0.863181,0.0078 1.694693,-0.609135 1.9375,-1.4375 l 2.625,-9.21875 c 2.014652,-0.6333 3.947796,-1.44015 5.78125,-2.40625 l 8.375,4.65625 c 0.753023,0.410996 1.76941,0.263887 2.375,-0.34375 L 85.25,76.96875 c 0.607637,-0.60559 0.754746,-1.621977 0.34375,-2.375 l -4.65625,-8.375 c 0.966116,-1.8334 1.772918,-3.76665 2.40625,-5.78125 l 9.21875,-2.625 C 93.390865,57.569693 94.007793,56.738181 94,55.875 l 0,-11.75 c 0.0078,-0.863181 -0.609135,-1.694693 -1.4375,-1.9375 l -9.21875,-2.625 C 82.710418,37.54785 81.903616,35.6147 80.9375,33.78125 l 4.65625,-8.375 c 0.410996,-0.753023 0.263887,-1.76941 -0.34375,-2.375 L 76.96875,14.75 c -0.60559,-0.607637 -1.621977,-0.754746 -2.375,-0.34375 l -8.375,4.65625 C 64.385296,18.09638 62.452152,17.28958 60.4375,16.65625 L 57.8125,7.4375 C 57.569693,6.6091355 56.738181,5.9922071 55.875,6 L 44.125,6 C 43.104026,6 42.389087,6.7295449 42.1875,7.4375 z M 45.65625,10 l 8.6875,0 2.5,8.75 c 0.191156,0.65817 0.743951,1.198681 1.40625,1.375 2.484578,0.68448 4.827634,1.68372 7.03125,2.9375 0.597286,0.33767 1.371464,0.33767 1.96875,0 L 75.21875,18.625 81.375,24.78125 76.9375,32.75 c -0.33767,0.597286 -0.33767,1.371464 0,1.96875 1.253779,2.20362 2.253017,4.54667 2.9375,7.03125 0.176319,0.662299 0.71683,1.215094 1.375,1.40625 l 8.75,2.5 0,8.6875 -8.75,2.5 c -0.65817,0.191156 -1.198681,0.743951 -1.375,1.40625 -0.684483,2.4846 -1.683721,4.82765 -2.9375,7.03125 -0.33767,0.597286 -0.33767,1.371464 0,1.96875 L 81.375,75.21875 75.21875,81.375 67.25,76.9375 c -0.597286,-0.33767 -1.371464,-0.33767 -1.96875,0 -2.203616,1.2538 -4.546672,2.253 -7.03125,2.9375 -0.662299,0.176319 -1.215094,0.71683 -1.40625,1.375 l -2.5,8.75 -8.6875,0 -2.5,-8.75 C 42.965094,80.59183 42.412299,80.051319 41.75,79.875 c -2.484578,-0.6845 -4.827634,-1.6837 -7.03125,-2.9375 -0.597286,-0.33767 -1.371464,-0.33767 -1.96875,0 L 24.78125,81.375 18.625,75.21875 23.0625,67.25 c 0.33767,-0.597286 0.33767,-1.371464 0,-1.96875 C 21.808721,63.07765 20.809483,60.7346 20.125,58.25 19.948681,57.587701 19.40817,57.034906 18.75,56.84375 l -8.75,-2.5 0,-8.6875 8.75,-2.5 c 0.65817,-0.191156 1.198681,-0.743951 1.375,-1.40625 0.684483,-2.48458 1.683721,-4.82763 2.9375,-7.03125 0.33767,-0.597286 0.33767,-1.371464 0,-1.96875 L 18.625,24.78125 24.78125,18.625 32.75,23.0625 c 0.597286,0.33767 1.371464,0.33767 1.96875,0 2.203616,-1.25378 4.546672,-2.25302 7.03125,-2.9375 0.662299,-0.176319 1.215094,-0.71683 1.40625,-1.375 z M 50,30 C 38.977995,30 30,38.97798 30,50 30,61.022 38.977995,70 50,70 61.022006,70 70,61.022 70,50 70,38.97798 61.022006,30 50,30 z m 0,4 c 8.860246,0 16,7.13974 16,16 0,8.8602 -7.139754,16 -16,16 -8.860245,0 -16,-7.1398 -16,-16 0,-8.86026 7.139755,-16 16,-16 z" transform="translate(0,952.36218)"/></g><text x="0" y="115" fill="#000000" font-size="5px" font-weight="bold" font-family="'Helvetica Neue', Helvetica, Arial-Unicode, Arial, Sans-serif">Created by throwaway icons</text><text x="0" y="120" fill="#000000" font-size="5px" font-weight="bold" font-family="'Helvetica Neue', Helvetica, Arial-Unicode, Arial, Sans-serif">from the Noun Project</text></svg>