<?xml version="1.0" encoding="UTF-8" standalone="no"?>
<svg
   xmlns:dc="http://purl.org/dc/elements/1.1/"
   xmlns:cc="http://creativecommons.org/ns#"
   xmlns:rdf="http://www.w3.org/1999/02/22-rdf-syntax-ns#"
   xmlns:svg="http://www.w3.org/2000/svg"
   xmlns="http://www.w3.org/2000/svg"
   xmlns:sodipodi="http://sodipodi.sourceforge.net/DTD/sodipodi-0.dtd"
   xmlns:inkscape="http://www.inkscape.org/namespaces/inkscape"
   width="462.45999pt"
   height="462.45999pt"
   version="1.1"
   viewBox="0 0 462.45999 462.45999"
   id="svg155"
   sodipodi:docname="noun-previous-1417000-nonameç.svg"
   inkscape:export-filename="/home/jaume/codi/tesi/GisFIRE-SpreadSimulation/src/gisfire_spread_simulation/icons/sources/reset.png"
   inkscape:export-xdpi="96"
   inkscape:export-ydpi="96"
   inkscape:version="0.92.5 (2060ec1f9f, 2020-04-08)">
  <metadata
     id="metadata159">
    <rdf:RDF>
      <cc:Work
         rdf:about="">
        <dc:format>image/svg+xml</dc:format>
        <dc:type
           rdf:resource="http://purl.org/dc/dcmitype/StillImage" />
        <dc:title></dc:title>
      </cc:Work>
    </rdf:RDF>
  </metadata>
  <sodipodi:namedview
     pagecolor="#ffffff"
     bordercolor="#666666"
     borderopacity="1"
     objecttolerance="10"
     gridtolerance="10"
     guidetolerance="10"
     inkscape:pageopacity="0"
     inkscape:pageshadow="2"
     inkscape:window-width="1874"
     inkscape:window-height="1016"
     id="namedview157"
     showgrid="false"
     fit-margin-top="0"
     fit-margin-left="0"
     fit-margin-right="0"
     fit-margin-bottom="0"
     inkscape:zoom="1.0114286"
     inkscape:cx="304.35187"
     inkscape:cy="214.97332"
     inkscape:window-x="1966"
     inkscape:window-y="27"
     inkscape:window-maximized="1"
     inkscape:current-layer="g153" />
  <defs
     id="defs71">
    <symbol
       id="w"
       overflow="visible"
       style="overflow:visible">
      <path
         d="M 5.625,-0.34375 C 5.34375,-0.1875 5.03906,-0.07031 4.71875,0 4.40625,0.082031 4.07813,0.125 3.73437,0.125 c -1.0234,0 -1.8281,-0.28516 -2.4219,-0.85938 -0.59375,-0.57031 -0.89062,-1.3477 -0.89062,-2.3281 0,-0.97656 0.29688,-1.75 0.89062,-2.3125 0.59375,-0.57031 1.3984,-0.85938 2.4219,-0.85938 0.34375,0 0.67188,0.039063 0.98438,0.10938 0.32031,0.074219 0.625,0.1875 0.90625,0.34375 v 1.2656 C 5.33203,-4.71094 5.04688,-4.85938 4.76562,-4.95313 4.48436,-5.04688 4.17968,-5.09375 3.85937,-5.09375 c -0.5625,0 -1.0078,0.18359 -1.3281,0.54688 -0.32422,0.35547 -0.48438,0.85156 -0.48438,1.4844 0,0.63672 0.16016,1.1367 0.48438,1.5 0.32031,0.35547 0.76562,0.53125 1.3281,0.53125 0.32031,0 0.625,-0.046875 0.90625,-0.14062 0.28125,-0.093745 0.56641,-0.23828 0.85938,-0.4375 z"
         id="path2"
         inkscape:connector-curvature="0" />
    </symbol>
    <symbol
       id="c"
       overflow="visible"
       style="overflow:visible">
      <path
         d="m 4.125,-3.3438 c -0.13672,-0.0625 -0.26562,-0.10156 -0.39062,-0.125 -0.125,-0.03125 -0.25,-0.046875 -0.375,-0.046875 -0.38672,0 -0.68359,0.12109 -0.89062,0.35938 -0.19922,0.24219 -0.29688,0.58594 -0.29688,1.0312 v 2.125 h -1.4688 v -4.5938 h 1.4688 v 0.75 c 0.1875,-0.30078 0.39844,-0.51953 0.64062,-0.65625 0.25,-0.13281 0.54688,-0.20312 0.89062,-0.20312 h 0.15625 c 0.0625,0 0.14453,0.011719 0.25,0.03125 z"
         id="path5"
         inkscape:connector-curvature="0" />
    </symbol>
    <symbol
       id="a"
       overflow="visible"
       style="overflow:visible">
      <path
         d="m 5.2969,-2.3125 v 0.42188 H 1.8594 c 0.03125,0.34375 0.14844,0.60547 0.35938,0.78125 0.21875,0.16797 0.51953,0.25 0.90625,0.25 0.3125,0 0.62891,-0.046875 0.95312,-0.14062 0.32031,-0.09375 0.65625,-0.22656 1,-0.40625 v 1.125 C 4.7344,-0.14452 4.38284,-0.04686 4.03125,0.01564 3.6875,0.085952 3.34375,0.12502 3.00005,0.12502 c -0.83594,0 -1.4844,-0.21094 -1.9531,-0.64062 -0.46094,-0.42578 -0.6875,-1.0195 -0.6875,-1.7812 0,-0.75 0.22266,-1.3359 0.67188,-1.7656 0.45703,-0.42578 1.082,-0.64062 1.875,-0.64062 0.72656,0 1.3047,0.21875 1.7344,0.65625 0.4375,0.42969 0.65625,1.0078 0.65625,1.7344 z M 3.7813,-2.79688 c 0,-0.28125 -0.085938,-0.50391 -0.25,-0.67188 -0.15625,-0.17578 -0.36719,-0.26562 -0.625,-0.26562 -0.29297,0 -0.52734,0.085937 -0.70312,0.25 -0.17969,0.15625 -0.28906,0.38672 -0.32812,0.6875 z"
         id="path8"
         inkscape:connector-curvature="0" />
    </symbol>
    <symbol
       id="g"
       overflow="visible"
       style="overflow:visible">
      <path
         d="m 2.7656,-2.0625 c -0.30469,0 -0.53125,0.054688 -0.6875,0.15625 -0.15625,0.10547 -0.23438,0.25781 -0.23438,0.45312 0,0.1875 0.0625,0.33594 0.1875,0.4375 0.125,0.10547 0.29688,0.15625 0.51562,0.15625 0.28125,0 0.51562,-0.097656 0.70312,-0.29688 0.1875,-0.19531 0.28125,-0.44531 0.28125,-0.75 v -0.15625 z m 2.25,-0.5625 V 0 H 3.5312 V -0.6875 C 3.33198,-0.40625 3.10932,-0.19531 2.85932,-0.0625 2.61713,0.0625 2.32026,0.125 1.9687,0.125 1.48823,0.125 1.09761,-0.01562 0.7968,-0.29688 0.50383,-0.57813 0.3593,-0.9375 0.3593,-1.37498 c 0,-0.53906 0.17969,-0.9375 0.54688,-1.1875 0.375,-0.25 0.95703,-0.375 1.75,-0.375 h 0.875 v -0.125 c 0,-0.22656 -0.09375,-0.39453 -0.28125,-0.5 -0.17969,-0.11328 -0.46484,-0.17188 -0.85938,-0.17188 -0.3125,0 -0.60547,0.03125 -0.875,0.09375 -0.27344,0.0625 -0.52344,0.15625 -0.75,0.28125 v -1.1094 c 0.3125,-0.082031 0.625,-0.14062 0.9375,-0.17188 0.32031,-0.039063 0.64062,-0.0625 0.95312,-0.0625 0.83203,0 1.4297,0.16406 1.7969,0.48438 0.375,0.32422 0.5625,0.85547 0.5625,1.5938 z"
         id="path11"
         inkscape:connector-curvature="0" />
    </symbol>
    <symbol
       id="b"
       overflow="visible"
       style="overflow:visible">
      <path
         d="m 2.3125,-5.9062 v 1.3125 h 1.5156 v 1.0469 H 2.3125 v 1.9531 c 0,0.21094 0.039062,0.35547 0.125,0.4375 0.082031,0.074219 0.25,0.10938 0.5,0.10938 H 3.70312 V 8e-5 H 2.43752 C 1.85158,8e-5 1.44143,-0.11711 1.20312,-0.3593 0.96093,-0.59758 0.84374,-1.00774 0.84374,-1.5937 V -3.5468 H 0.10936 v -1.0469 h 0.73438 v -1.3125 z"
         id="path14"
         inkscape:connector-curvature="0" />
    </symbol>
    <symbol
       id="k"
       overflow="visible"
       style="overflow:visible">
      <path
         d="M 3.8281,-3.9219 V -6.3907 H 5.3125 V -10e-5 H 3.8281 V -0.67198 C 3.62888,-0.39854 3.40622,-0.19542 3.15622,-0.0626 2.91403,0.0624 2.63278,0.1249 2.31247,0.1249 c -0.5625,0 -1.0273,-0.22266 -1.3906,-0.67188 -0.36719,-0.45703 -0.54688,-1.0391 -0.54688,-1.75 0,-0.70703 0.17969,-1.2852 0.54688,-1.7344 0.36328,-0.44531 0.82812,-0.67188 1.3906,-0.67188 0.32031,0 0.60156,0.0625 0.84375,0.1875 0.25,0.125 0.47266,0.32422 0.67188,0.59375 z m -0.96875,2.9688 c 0.32031,0 0.5625,-0.11328 0.71875,-0.34375 0.16406,-0.22656 0.25,-0.5625 0.25,-1 0,-0.4375 -0.085937,-0.76953 -0.25,-1 C 3.42185,-3.52341 3.17966,-3.6406 2.85935,-3.6406 c -0.3125,0 -0.55469,0.11719 -0.71875,0.34375 -0.15625,0.23047 -0.23438,0.5625 -0.23438,1 0,0.4375 0.078125,0.77344 0.23438,1 0.16406,0.23047 0.40625,0.34375 0.71875,0.34375 z"
         id="path17"
         inkscape:connector-curvature="0" />
    </symbol>
    <symbol
       id="j"
       overflow="visible"
       style="overflow:visible">
      <path
         d="m 3.1562,-0.95312 c 0.3125,0 0.55078,-0.11328 0.71875,-0.34375 0.16406,-0.22656 0.25,-0.5625 0.25,-1 0,-0.4375 -0.085938,-0.76953 -0.25,-1 C 3.70698,-3.52343 3.4687,-3.64062 3.1562,-3.64062 c -0.3125,0 -0.55859,0.11719 -0.73438,0.34375 -0.16797,0.23047 -0.25,0.5625 -0.25,1 0,0.4375 0.082031,0.77344 0.25,1 0.17578,0.23047 0.42188,0.34375 0.73438,0.34375 z m -0.98438,-2.9688 c 0.20703,-0.26953 0.42969,-0.46875 0.67188,-0.59375 0.25,-0.125 0.53516,-0.1875 0.85938,-0.1875 0.5625,0 1.0234,0.22656 1.3906,0.67188 0.36328,0.44922 0.54688,1.0273 0.54688,1.7344 0,0.71094 -0.18359,1.293 -0.54688,1.75 -0.36719,0.44922 -0.82812,0.67188 -1.3906,0.67188 -0.32422,0 -0.60938,-0.0625 -0.85938,-0.1875 C 2.60151,-0.19532 2.37886,-0.39845 2.17182,-0.67189 V -1e-5 h -1.4688 v -6.3906 h 1.4688 z"
         id="path20"
         inkscape:connector-curvature="0" />
    </symbol>
    <symbol
       id="f"
       overflow="visible"
       style="overflow:visible">
      <path
         d="m 0.10938,-4.5938 h 1.4688 l 1.2344,3.1094 1.0469,-3.1094 h 1.4688 L 3.39078,0.4374 C 3.20328,0.94521 2.97672,1.30068 2.7189,1.4999 2.45718,1.70693 2.11343,1.8124 1.6877,1.8124 H 0.84395 V 0.84365 h 0.45312 c 0.25,0 0.42969,-0.042969 0.54688,-0.125 C 1.95723,0.644431 2.04707,0.50381 2.10957,0.29677 l 0.046875,-0.125 z"
         id="path23"
         inkscape:connector-curvature="0" />
    </symbol>
    <symbol
       id="i"
       overflow="visible"
       style="overflow:visible">
      <path
         d="m 0.76562,-6.125 h 4.2656 v 1.1875 h -2.6719 v 1.1406 h 2.5156 v 1.2031 h -2.5156 v 1.4062 h 2.7656 v 1.1875 h -4.3594 z"
         id="path26"
         inkscape:connector-curvature="0" />
    </symbol>
    <symbol
       id="e"
       overflow="visible"
       style="overflow:visible">
      <path
         d="m 0.70312,-6.3906 h 1.4688 V 0 h -1.4688 z"
         id="path29"
         inkscape:connector-curvature="0" />
    </symbol>
    <symbol
       id="h"
       overflow="visible"
       style="overflow:visible">
      <path
         d="m 0.70312,-4.5938 h 1.4688 V 0 h -1.4688 z m 0,-1.7969 h 1.4688 v 1.2031 h -1.4688 z"
         id="path32"
         inkscape:connector-curvature="0" />
    </symbol>
    <symbol
       id="v"
       overflow="visible"
       style="overflow:visible">
      <path
         d="m 4.2969,-4.4531 v 1.1094 C 3.9844,-3.4687 3.67971,-3.56245 3.39065,-3.62495 3.09768,-3.695262 2.82034,-3.73433 2.56253,-3.73433 c -0.28125,0 -0.49219,0.039063 -0.625,0.10938 -0.13672,0.074219 -0.20312,0.18359 -0.20312,0.32812 0,0.11719 0.050781,0.20312 0.15625,0.26562 0.10156,0.0625 0.28516,0.10938 0.54688,0.14062 l 0.26562,0.03125 c 0.75,0.09375 1.2539,0.25 1.5156,0.46875 0.25781,0.21875 0.39062,0.5625 0.39062,1.0312 0,0.49219 -0.18359,0.85938 -0.54688,1.1094 -0.36719,0.25 -0.90234,0.375 -1.6094,0.375 -0.3125,0 -0.63281,-0.027344 -0.95312,-0.078125 -0.32422,-0.050781 -0.65625,-0.125 -1,-0.21875 v -1.1094 c 0.28906,0.13672 0.59375,0.24219 0.90625,0.3125 0.3125,0.074219 0.625,0.10938 0.9375,0.10938 0.28906,0 0.50391,-0.035156 0.64062,-0.10938 0.14453,-0.082031 0.21875,-0.20312 0.21875,-0.35938 0,-0.13281 -0.054687,-0.23438 -0.15625,-0.29688 -0.09375,-0.0625 -0.28906,-0.10938 -0.57812,-0.14062 L 2.20311,-1.81252 c -0.65625,-0.070312 -1.1172,-0.21875 -1.375,-0.4375 -0.26172,-0.22656 -0.39062,-0.56641 -0.39062,-1.0156 0,-0.48828 0.16406,-0.84766 0.5,-1.0781 0.33203,-0.23828 0.84375,-0.35938 1.5312,-0.35938 0.26953,0 0.55078,0.023437 0.84375,0.0625 0.30078,0.042969 0.62891,0.10547 0.98438,0.1875 z"
         id="path35"
         inkscape:connector-curvature="0" />
    </symbol>
    <symbol
       id="u"
       overflow="visible"
       style="overflow:visible">
      <path
         d="M 0.25,-6.125 H 1.7656 L 2.8281,-1.6719 3.875,-6.125 H 5.3906 L 6.4531,-1.6719 7.5,-6.125 H 9.0156 L 7.5625,0 H 5.75 L 4.625,-4.6562 3.5312,0 H 1.7031 Z"
         id="path38"
         inkscape:connector-curvature="0" />
    </symbol>
    <symbol
       id="t"
       overflow="visible"
       style="overflow:visible">
      <path
         d="m 3.7344,-6.3906 v 0.96875 H 2.9219 c -0.21094,0 -0.35547,0.039063 -0.4375,0.10938 -0.085937,0.074219 -0.125,0.20312 -0.125,0.39062 v 0.32812 h 1.25 v 1.0469 h -1.25 V 7e-5 H 0.8906 v -3.5469 H 0.15622 v -1.0469 H 0.8906 v -0.32812 c 0,-0.5 0.14062,-0.86719 0.42188,-1.1094 0.28125,-0.23828 0.71094,-0.35938 1.2969,-0.35938 z"
         id="path41"
         inkscape:connector-curvature="0" />
    </symbol>
    <symbol
       id="d"
       overflow="visible"
       style="overflow:visible">
      <path
         d="m 2.8906,-3.6562 c -0.32422,0 -0.57422,0.12109 -0.75,0.35938 -0.16797,0.23047 -0.25,0.5625 -0.25,1 0,0.4375 0.082031,0.77734 0.25,1.0156 0.17578,0.23047 0.42578,0.34375 0.75,0.34375 0.32031,0 0.56641,-0.11328 0.73438,-0.34375 0.17578,-0.23828 0.26562,-0.57812 0.26562,-1.0156 0,-0.43748 -0.089844,-0.76953 -0.26562,-1 C 3.45701,-3.5351 3.21092,-3.6562 2.8906,-3.6562 Z m 0,-1.0469 c 0.78906,0 1.4062,0.21484 1.8438,0.64062 0.44531,0.42969 0.67188,1.0156 0.67188,1.7656 0,0.76172 -0.22656,1.3555 -0.67188,1.7812 -0.4375,0.42969 -1.0547,0.64062 -1.8438,0.64062 -0.79297,0 -1.4141,-0.21094 -1.8594,-0.64062 -0.44922,-0.42578 -0.67188,-1.0195 -0.67188,-1.7812 0,-0.75 0.22266,-1.3359 0.67188,-1.7656 0.44531,-0.42578 1.0664,-0.64062 1.8594,-0.64062 z"
         id="path44"
         inkscape:connector-curvature="0" />
    </symbol>
    <symbol
       id="s"
       overflow="visible"
       style="overflow:visible">
      <path
         d="M 4.9688,-3.8281 C 5.1563,-4.11716 5.37505,-4.33591 5.62505,-4.48435 5.88286,-4.62888 6.16411,-4.7031 6.4688,-4.7031 c 0.53125,0 0.92969,0.16406 1.2031,0.48438 0.28125,0.32422 0.42188,0.79688 0.42188,1.4219 V 8e-5 h -1.4844 v -2.3906 c 0.00781,-0.039063 0.015625,-0.078125 0.015625,-0.10938 v -0.17188 c 0,-0.32031 -0.046875,-0.55469 -0.14062,-0.70312 -0.09375,-0.14453 -0.25,-0.21875 -0.46875,-0.21875 -0.28125,0 -0.5,0.11719 -0.65625,0.34375 -0.14844,0.23047 -0.21875,0.5625 -0.21875,1 v 2.25 h -1.4844 v -2.3906 c 0,-0.50781 -0.046875,-0.83594 -0.14062,-0.98438 -0.085937,-0.14453 -0.23438,-0.21875 -0.45312,-0.21875 -0.28125,0 -0.5,0.11719 -0.65625,0.34375 -0.15625,0.23047 -0.23438,0.55859 -0.23438,0.98438 V 10e-5 h -1.4688 v -4.5938 h 1.4688 v 0.67188 c 0.1875,-0.25781 0.39453,-0.45312 0.625,-0.57812 0.22656,-0.13281 0.48828,-0.20312 0.78125,-0.20312 0.3125,0 0.58594,0.078125 0.82812,0.23438 0.25,0.14844 0.4375,0.35938 0.5625,0.64062 z"
         id="path47"
         inkscape:connector-curvature="0" />
    </symbol>
    <symbol
       id="r"
       overflow="visible"
       style="overflow:visible">
      <path
         d="M 5.3281,-2.7969 V 0 H 3.8437 v -2.1406 c 0,-0.39453 -0.011719,-0.66406 -0.03125,-0.8125 -0.011719,-0.15625 -0.039062,-0.26953 -0.078125,-0.34375 -0.0625,-0.09375 -0.14844,-0.16406 -0.25,-0.21875 -0.09375,-0.050781 -0.20312,-0.078125 -0.32812,-0.078125 -0.30469,0 -0.54297,0.12109 -0.71875,0.35938 -0.17969,0.23047 -0.26562,0.55469 -0.26562,0.96875 V 5e-6 h -1.4688 v -6.3906 h 1.4688 v 2.4688 c 0.22656,-0.26953 0.46094,-0.46875 0.70312,-0.59375 0.25,-0.125 0.52344,-0.1875 0.82812,-0.1875 0.53125,0 0.92969,0.16406 1.2031,0.48438 0.28125,0.32422 0.42188,0.79688 0.42188,1.4219 z"
         id="path50"
         inkscape:connector-curvature="0" />
    </symbol>
    <symbol
       id="q"
       overflow="visible"
       style="overflow:visible">
      <path
         d="m 0.76562,-6.125 h 1.7656 l 2.2344,4.2031 V -6.125 h 1.5 V 0 H 4.50002 L 2.26562,-4.2031 V 0 h -1.5 z"
         id="path53"
         inkscape:connector-curvature="0" />
    </symbol>
    <symbol
       id="p"
       overflow="visible"
       style="overflow:visible">
      <path
         d="m 0.65625,-1.7969 v -2.7969 h 1.4844 v 0.45312 c 0,0.25 -0.00781,0.5625 -0.015625,0.9375 v 0.75 c 0,0.375 0.00781,0.64844 0.03125,0.8125 0.019531,0.15625 0.050781,0.27344 0.09375,0.34375 0.0625,0.09375 0.14062,0.16797 0.23438,0.21875 0.10156,0.054687 0.21875,0.078125 0.34375,0.078125 0.30078,0 0.53906,-0.11328 0.71875,-0.34375 0.17578,-0.23828 0.26562,-0.56641 0.26562,-0.98438 v -2.2656 h 1.4688 v 4.5938 h -1.4688 v -0.67188 c -0.21875,0.27344 -0.45312,0.47656 -0.70312,0.60938 -0.25,0.125 -0.52734,0.1875 -0.82812,0.1875 -0.53125,0 -0.9375,-0.16016 -1.2188,-0.48438 -0.27344,-0.33203 -0.40625,-0.8125 -0.40625,-1.4375 z"
         id="path56"
         inkscape:connector-curvature="0" />
    </symbol>
    <symbol
       id="o"
       overflow="visible"
       style="overflow:visible">
      <path
         d="M 5.3281,-2.7969 V 0 H 3.8437 v -2.1406 c 0,-0.39453 -0.011719,-0.66406 -0.03125,-0.8125 -0.011719,-0.15625 -0.039062,-0.26953 -0.078125,-0.34375 -0.0625,-0.09375 -0.14844,-0.16406 -0.25,-0.21875 -0.09375,-0.050781 -0.20312,-0.078125 -0.32812,-0.078125 -0.30469,0 -0.54297,0.12109 -0.71875,0.35938 -0.17969,0.23047 -0.26562,0.55469 -0.26562,0.96875 V 5e-6 h -1.4688 v -4.5938 h 1.4688 v 0.67188 c 0.22656,-0.26953 0.46094,-0.46875 0.70312,-0.59375 0.25,-0.125 0.52344,-0.1875 0.82812,-0.1875 0.53125,0 0.92969,0.16406 1.2031,0.48438 0.28125,0.32422 0.42188,0.79688 0.42188,1.4219 z"
         id="path59"
         inkscape:connector-curvature="0" />
    </symbol>
    <symbol
       id="n"
       overflow="visible"
       style="overflow:visible">
      <path
         d="m 0.76562,-6.125 h 2.625 c 0.78125,0 1.3789,0.17188 1.7969,0.51562 0.41406,0.34375 0.625,0.83984 0.625,1.4844 0,0.63672 -0.21094,1.1328 -0.625,1.4844 -0.41797,0.34375 -1.0156,0.51562 -1.7969,0.51562 H 2.35942 V 4e-5 h -1.5938 z m 1.5938,1.1406 v 1.7188 H 3.2188 c 0.3125,0 0.55078,-0.070313 0.71875,-0.21875 0.16406,-0.15625 0.25,-0.36719 0.25,-0.64062 0,-0.28125 -0.085938,-0.49219 -0.25,-0.64062 C 3.76958,-4.91012 3.5313,-4.98434 3.2188,-4.98434 Z"
         id="path62"
         inkscape:connector-curvature="0" />
    </symbol>
    <symbol
       id="m"
       overflow="visible"
       style="overflow:visible">
      <path
         d="m 0.70312,-4.5938 h 1.4688 v 4.5156 c 0,0.61328 -0.15234,1.082 -0.45312,1.4062 C 1.42583,1.64831 1.00396,1.81238 0.4532,1.81238 H -0.28118 V 0.84363 h 0.25 c 0.28125,0 0.47266,-0.0625 0.57812,-0.1875 0.10156,-0.125 0.15625,-0.37109 0.15625,-0.73438 z m 0,-1.7969 h 1.4688 v 1.2031 h -1.4688 z"
         id="path65"
         inkscape:connector-curvature="0" />
    </symbol>
    <symbol
       id="l"
       overflow="visible"
       style="overflow:visible">
      <path
         d="M 4.4219,-4.4531 V -3.25 C 4.22268,-3.38281 4.01956,-3.48438 3.81252,-3.54688 3.6133,-3.617193 3.40627,-3.65626 3.18752,-3.65626 c -0.40625,0 -0.72656,0.12109 -0.95312,0.35938 -0.23047,0.24219 -0.34375,0.57422 -0.34375,1 0,0.42969 0.11328,0.76172 0.34375,1 0.22656,0.24219 0.54688,0.35938 0.95312,0.35938 0.22656,0 0.44531,-0.03125 0.65625,-0.09375 0.20703,-0.070312 0.39844,-0.17578 0.57812,-0.3125 v 1.2031 C 4.19142,-0.054712 3.95705,0.00388 3.71877,0.04685 3.47658,0.097631 3.24221,0.124975 3.01565,0.124975 c -0.83594,0 -1.4844,-0.21094 -1.9531,-0.64062 -0.46875,-0.42578 -0.70312,-1.0195 -0.70312,-1.7812 0,-0.75781 0.23438,-1.3477 0.70312,-1.7656 0.46875,-0.42578 1.1172,-0.64062 1.9531,-0.64062 0.23828,0 0.47266,0.023437 0.70312,0.0625 0.23828,0.042969 0.47266,0.10547 0.70312,0.1875 z"
         id="path68"
         inkscape:connector-curvature="0" />
    </symbol>
  </defs>
  <g
     id="g153"
     transform="translate(-118.77,-48.77)">
    <path
       d="m 313.84,284.2 147.99,90.812 v -188.35 l -147.99,90.809 v -85.766 h -25.227 v 178.26 h 25.227 z"
       id="path73"
       inkscape:connector-curvature="0" />
    <path
       d="m 239.85,191.71 h 25.391 V 369.43 H 239.85 Z"
       id="path75"
       inkscape:connector-curvature="0"
       style="fill-rule:evenodd" />
    <path
       d="m 350.84,48.77 c -127.81,0 -232.07,104.27 -232.07,232.07 0,127.81 104.27,230.39 232.07,230.39 127.81,0 230.39,-102.58 230.39,-230.39 0,-127.81 -102.58,-232.07 -230.39,-232.07 z m 0,23.543 c 114.36,0 206.85,94.176 206.85,208.53 0,114.36 -92.492,206.85 -206.85,206.85 -114.36,0 -208.53,-92.492 -208.53,-206.85 0,-116.04 94.176,-208.53 208.53,-208.53 z"
       id="path77"
       inkscape:connector-curvature="0" />
  </g>
</svg>
